# Made in Blockbench 5.0.7
mtllib touch.mtl

o cube
v 0.32499999999999996 1 0.3249999999999999
v -0.32499999999999996 1 -0.3249999999999999
v 0.32499999999999996 0.4375 0.3249999999999999
v -0.32499999999999996 0.4375 -0.3249999999999999
v -0.32499999999999996 1 -0.3249999999999999
v 0.32499999999999996 1 0.3249999999999999
v -0.32499999999999996 0.4375 -0.3249999999999999
v 0.32499999999999996 0.4375 0.3249999999999999
vt 0 1
vt 1 1
vt 1 0
vt 0 0
vt 0 1
vt 1 1
vt 1 0
vt 0 0
vn 0.7071067811865475 0 -0.7071067811865476
vn -0.7071067811865475 0 0.7071067811865476
usemtl m_17b920af-a7d7-d39f-9356-85a7bf2683c7
f 3/4/1 4/3/1 2/2/1 1/1/1
f 7/8/2 8/7/2 6/6/2 5/5/2
o cube
v 0.32499999999999984 1 -0.3249999999999999
v 0.32499999999999984 1 -0.3249999999999999
v 0.32499999999999984 0.4375 -0.3249999999999999
v 0.32499999999999984 0.4375 -0.3249999999999999
v -0.32499999999999996 1 0.325
v -0.32499999999999996 1 0.325
v -0.32499999999999996 0.4375 0.325
v -0.32499999999999996 0.4375 0.325
vt 0 1
vt 1 1
vt 1 0
vt 0 0
vt 0 1
vt 1 1
vt 1 0
vt 0 0
vn -0.7071067811865476 0 -0.7071067811865475
vn 0.7071067811865476 0 0.7071067811865475
usemtl m_17b920af-a7d7-d39f-9356-85a7bf2683c7
f 12/12/3 15/11/3 13/10/3 10/9/3
f 16/16/4 11/15/4 9/14/4 14/13/4
o cube
v 0.3125 0.3125 0.3125
v 0.3125 0.3125 -0.3125
v 0.3125 0 0.3125
v 0.3125 0 -0.3125
v -0.3125 0.3125 -0.3125
v -0.3125 0.3125 0.3125
v -0.3125 0 -0.3125
v -0.3125 0 0.3125
vt 0.4375 0.6875
vt 0.75 0.6875
vt 0.75 0.46875
vt 0.4375 0.46875
vt 0.4375 0.6875
vt 0.75 0.6875
vt 0.75 0.46875
vt 0.4375 0.46875
vt 0.4375 0.6875
vt 0.75 0.6875
vt 0.75 0.46875
vt 0.4375 0.46875
vt 0.4375 0.6875
vt 0.75 0.6875
vt 0.75 0.46875
vt 0.4375 0.46875
vt 0.75 0.6875
vt 0.4375 0.6875
vt 0.4375 1
vt 0.75 1
vt 0.75 1
vt 0.4375 1
vt 0.4375 0.6875
vt 0.75 0.6875
vn 0 0 -1
vn 1 0 0
vn 0 0 1
vn -1 0 0
vn 0 1 0
vn 0 -1 0
usemtl m_5a27e43b-e1ae-1e51-f4e9-e76ffd001852
f 20/20/5 23/19/5 21/18/5 18/17/5
f 19/24/6 20/23/6 18/22/6 17/21/6
f 24/28/7 19/27/7 17/26/7 22/25/7
f 23/32/8 24/31/8 22/30/8 21/29/8
f 22/36/9 17/35/9 18/34/9 21/33/9
f 23/40/10 20/39/10 19/38/10 24/37/10
o cube
v 0.4375 0.4375 0.4375
v 0.4375 0.4375 -0.4375
v 0.4375 0.3125 0.4375
v 0.4375 0.3125 -0.4375
v -0.4375 0.4375 -0.4375
v -0.4375 0.4375 0.4375
v -0.4375 0.3125 -0.4375
v -0.4375 0.3125 0.4375
vt 0.4375 0.46875
vt 0.875 0.46875
vt 0.875 0.40625
vt 0.4375 0.40625
vt 0.4375 0.46875
vt 0.875 0.46875
vt 0.875 0.40625
vt 0.4375 0.40625
vt 0.4375 0.46875
vt 0.875 0.46875
vt 0.875 0.40625
vt 0.4375 0.40625
vt 0.4375 0.46875
vt 0.875 0.46875
vt 0.875 0.40625
vt 0.4375 0.40625
vt 0.4375 0.5625
vt 0 0.5625
vt 0 1
vt 0.4375 1
vt 0.4375 0.5625
vt 0 0.5625
vt 0 0.125
vt 0.4375 0.125
vn 0 0 -1
vn 1 0 0
vn 0 0 1
vn -1 0 0
vn 0 1 0
vn 0 -1 0
usemtl m_5a27e43b-e1ae-1e51-f4e9-e76ffd001852
f 28/44/11 31/43/11 29/42/11 26/41/11
f 27/48/12 28/47/12 26/46/12 25/45/12
f 32/52/13 27/51/13 25/50/13 30/49/13
f 31/56/14 32/55/14 30/54/14 29/53/14
f 30/60/15 25/59/15 26/58/15 29/57/15
f 31/64/16 28/63/16 27/62/16 32/61/16